<?xml version="1.0" standalone="no"?>
<!DOCTYPE svg PUBLIC "-//W3C//DTD SVG 20010904//EN"
 "http://www.w3.org/TR/2001/REC-SVG-20010904/DTD/svg10.dtd">
<svg version="1.0" xmlns="http://www.w3.org/2000/svg"
 width="1280.000000pt" height="1280.000000pt" viewBox="0 0 1280.000000 1280.000000"
 preserveAspectRatio="xMidYMid meet">
<metadata>
Created by potrace 1.15, written by Peter Selinger 2001-2017
</metadata>
<g transform="translate(0.000000,1280.000000) scale(0.100000,-0.100000)"
fill="#000000" stroke="none">
<path d="M7130 10060 c-360 -44 -693 -172 -965 -372 -39 -28 -129 -111 -202
-183 l-132 -133 -58 44 c-138 103 -372 199 -593 243 -204 40 -278 46 -565 46
-241 0 -302 -4 -435 -24 -491 -73 -875 -237 -1115 -476 -109 -108 -176 -212
-221 -342 -18 -52 -34 -97 -36 -98 -2 -2 -42 3 -88 12 -123 23 -414 23 -545
-1 -371 -67 -703 -241 -956 -502 -193 -200 -310 -412 -359 -654 -19 -91 -21
-127 -17 -270 7 -223 48 -375 158 -578 l52 -96 -44 -36 c-265 -213 -437 -493
-490 -800 -16 -93 -17 -291 -1 -386 31 -190 120 -401 230 -549 181 -242 470
-425 793 -500 l76 -18 7 -95 c41 -546 481 -969 1140 -1093 141 -27 482 -37
648 -20 175 19 451 70 569 107 13 3 27 -14 57 -68 218 -396 683 -729 1121
-802 119 -20 332 -21 442 -1 342 59 651 237 934 538 l94 99 85 -85 c121 -121
260 -225 415 -311 452 -250 981 -342 1421 -246 404 87 720 332 904 700 29 58
57 119 63 136 l11 31 88 -18 c407 -83 906 -17 1266 168 373 190 607 493 674
874 32 181 18 438 -36 649 l-19 74 37 31 c300 243 544 670 613 1076 29 168 23
368 -16 509 -95 349 -349 606 -745 753 -53 20 -126 43 -164 53 -60 15 -67 19
-62 38 3 12 19 73 36 136 56 202 53 434 -7 625 -172 550 -765 888 -1513 862
-181 -7 -373 -32 -536 -72 -58 -14 -107 -25 -110 -25 -2 0 -4 8 -4 18 0 10 -9
48 -21 83 -150 466 -632 817 -1274 930 -136 24 -475 34 -605 19z m512 -235
c409 -59 777 -248 980 -504 34 -42 81 -116 105 -166 57 -119 76 -210 71 -351
l-3 -111 115 39 c146 49 310 91 470 120 109 20 158 23 380 23 282 -1 363 -12
547 -76 624 -218 853 -803 550 -1401 l-54 -106 61 -7 c186 -20 435 -92 581
-168 432 -224 577 -646 403 -1174 -113 -344 -358 -678 -578 -788 -30 -15 -56
-28 -57 -29 -1 -1 12 -46 28 -101 57 -189 70 -270 76 -450 4 -144 2 -185 -15
-265 -38 -185 -110 -324 -239 -460 -135 -142 -290 -236 -512 -310 -360 -120
-839 -116 -1117 10 -37 16 -70 30 -74 30 -3 0 -14 -35 -24 -77 -57 -243 -172
-451 -336 -606 -296 -280 -747 -366 -1251 -238 -504 127 -950 453 -1074 784
-10 26 -20 47 -24 47 -3 0 -19 -20 -34 -45 -119 -188 -345 -437 -508 -559
-206 -156 -392 -233 -626 -257 -345 -37 -740 129 -1030 434 -135 142 -250 334
-274 459 -9 47 -15 59 -28 55 -9 -3 -77 -23 -151 -46 -538 -164 -1021 -182
-1410 -52 -398 134 -666 431 -709 788 -10 81 -2 212 18 280 5 17 7 34 3 37 -3
3 -30 6 -61 6 -138 0 -367 58 -506 128 -295 148 -493 405 -559 724 -23 110
-21 309 4 421 66 300 269 562 546 704 41 21 72 43 70 48 -2 6 -33 50 -70 98
-77 102 -175 298 -205 407 -65 238 -42 468 69 696 199 410 681 720 1170 753
224 15 424 -21 606 -108 86 -41 104 -47 99 -32 -3 11 -10 54 -14 96 -34 303
140 558 504 736 302 148 659 221 1075 221 605 -1 1039 -172 1174 -462 14 -30
26 -63 26 -72 0 -34 15 -17 59 67 149 287 436 549 749 685 303 131 653 175
1004 125z"/>
</g>
</svg>
